<svg width="65" height="64" viewBox="0 0 65 64" fill="none" xmlns="http://www.w3.org/2000/svg">
<g clip-path="url(#clip0_28_520)">
<path d="M14.0013 10.6667H24.668L30.0013 24L23.3346 28C26.1905 33.7908 30.8772 38.4775 36.668 41.3334L40.668 34.6667L54.0013 40V50.6667C54.0013 52.0812 53.4394 53.4377 52.4392 54.4379C51.439 55.4381 50.0825 56 48.668 56C38.266 55.3679 28.455 50.9507 21.0862 43.5818C13.7173 36.2129 9.3001 26.402 8.66797 16C8.66797 14.5855 9.22987 13.229 10.2301 12.2288C11.2303 11.2286 12.5868 10.6667 14.0013 10.6667Z" stroke="#4B5563" stroke-width="1.5" stroke-linejoin="round"/>
<path d="M40.668 18.6667C42.0825 18.6667 43.439 19.2286 44.4392 20.2288C45.4394 21.229 46.0013 22.5855 46.0013 24" stroke="#4B5563" stroke-width="1.5" stroke-linejoin="round"/>
<path d="M40.668 8C44.9114 8 48.9811 9.68571 51.9817 12.6863C54.9823 15.6869 56.668 19.7565 56.668 24" stroke="#4B5563" stroke-width="1.5" stroke-linejoin="round"/>
</g>
<defs>
<clipPath id="clip0_28_520">
<rect width="64" height="64" fill="white" transform="translate(0.667969)"/>
</clipPath>
</defs>
</svg>
