<svg width="64" height="64" viewBox="0 0 64 64" fill="none" xmlns="http://www.w3.org/2000/svg">
<g clip-path="url(#clip0_28_492)">
<path d="M44.5327 21.3333C44.0019 19.8273 43.0326 18.5146 41.7494 17.5641C40.4663 16.6136 38.928 16.0689 37.3327 16H26.666C24.5443 16 22.5095 16.8429 21.0092 18.3431C19.5089 19.8434 18.666 21.8783 18.666 24C18.666 26.1217 19.5089 28.1566 21.0092 29.6569C22.5095 31.1571 24.5443 32 26.666 32H37.3327C39.4544 32 41.4892 32.8429 42.9895 34.3431C44.4898 35.8434 45.3327 37.8783 45.3327 40C45.3327 42.1217 44.4898 44.1566 42.9895 45.6569C41.4892 47.1571 39.4544 48 37.3327 48H26.666C25.0707 47.9311 23.5324 47.3864 22.2493 46.4359C20.9662 45.4854 19.9968 44.1727 19.466 42.6667" stroke="#4B5563" stroke-width="1.5" stroke-linejoin="round"/>
<path d="M32 8V16M32 48V56" stroke="#4B5563" stroke-width="1.5" stroke-linejoin="round"/>
</g>
<defs>
<clipPath id="clip0_28_492">
<rect width="64" height="64" fill="white"/>
</clipPath>
</defs>
</svg>
